<?xml version="1.0" standalone="no"?>
<!DOCTYPE svg PUBLIC "-//W3C//DTD SVG 20010904//EN"
 "http://www.w3.org/TR/2001/REC-SVG-20010904/DTD/svg10.dtd">
<svg version="1.0" xmlns="http://www.w3.org/2000/svg"
 width="460.000000pt" height="460.000000pt" viewBox="0 0 460.000000 460.000000"
 preserveAspectRatio="xMidYMid meet">
<metadata>
Created by potrace 1.14, written by Peter Selinger 2001-2017
</metadata>
<g transform="translate(0.000000,460.000000) scale(0.100000,-0.100000)"
fill="#000000" stroke="none">
<path d="M0 3780 l0 -820 120 0 120 0 0 130 0 130 68 0 c37 0 91 -3 120 -6
l52 -7 0 -124 0 -124 46 3 47 3 3 130 c1 72 3 185 3 253 l1 122 205 0 205 0 0
-125 0 -125 470 0 470 0 0 125 0 125 120 0 c96 0 122 3 126 14 3 8 6 124 7
258 l2 243 -122 3 -122 3 -3 -138 -3 -138 -122 -3 -123 -3 0 395 0 395 26 3
c21 2 30 13 44 51 l18 47 -89 0 -89 0 -2 -512 -3 -513 -335 -3 c-184 -2 -444
0 -577 3 l-243 7 0 509 0 509 -220 0 -220 0 0 -820z"/>
<path d="M1882 4551 c3 -48 5 -51 30 -51 26 0 27 2 24 48 -2 43 -5 47 -30 50
-27 3 -27 3 -24 -47z"/>
<path d="M3160 4550 l0 -50 125 0 125 0 0 -255 0 -255 -245 0 -245 0 0 125 0
125 -120 0 -120 0 0 135 0 136 -122 -3 -123 -3 -3 -133 -3 -133 -47 1 c-26 1
-82 1 -124 1 l-78 -1 0 -125 0 -125 125 0 125 0 0 -390 0 -390 -125 0 -125 0
0 -120 0 -120 -120 0 -120 0 0 -105 0 -105 -125 0 -125 0 -1 -67 c-1 -38 -1
-88 0 -113 1 -25 -1 -60 -4 -77 l-6 -33 -119 0 -119 0 -3 -131 -3 -132 -85 1
c-47 0 -313 1 -592 1 l-508 1 0 125 0 126 -112 -3 -113 -3 0 -120 0 -120 113
-3 112 -3 0 -124 0 -125 -115 0 -115 0 0 -130 c0 -80 -4 -130 -10 -130 -7 0
-10 -290 -10 -850 l0 -850 1375 0 1375 0 0 125 0 125 -165 0 -165 0 0 245 0
245 125 0 125 0 0 -125 0 -126 123 3 122 3 0 248 0 247 238 0 237 0 0 -125 0
-125 -125 0 -125 0 0 -245 0 -245 125 0 125 0 0 -115 0 -115 125 0 125 0 0
115 0 115 135 0 135 0 0 -125 0 -125 115 0 115 0 0 125 0 125 115 0 115 0 0
-125 0 -125 115 0 115 0 0 245 0 245 -480 0 -480 0 0 125 0 125 120 0 120 0 0
125 0 125 -105 0 -105 0 0 120 0 120 -119 0 -119 0 0 48 c0 26 0 82 -1 125
l-1 77 -130 0 -130 0 -1 83 c0 45 -2 97 -3 115 l-2 32 258 0 258 0 0 125 0
125 115 0 115 0 0 -120 0 -120 115 0 115 0 0 120 0 120 230 0 230 0 0 114 c0
95 -3 115 -16 120 -9 3 -112 6 -230 6 l-214 0 0 125 0 124 -102 3 -103 3 -3
128 -3 127 226 0 225 0 0 -130 0 -130 110 0 110 0 0 1075 0 1075 -720 0 -720
0 0 -50z m-490 -435 l0 -125 -120 0 -120 0 0 125 0 125 120 0 120 0 0 -125z
m250 -260 l0 -135 -120 0 -120 0 0 135 0 135 120 0 120 0 0 -135z m740 -515
l0 -130 -120 0 c-118 0 -120 0 -121 23 0 21 0 199 1 225 0 9 31 12 120 12
l120 0 0 -130z m-500 -255 l0 -125 54 0 c30 0 58 -5 61 -10 4 -6 10 -8 15 -5
4 3 13 -1 19 -9 16 -19 71 -10 93 15 14 17 30 19 137 19 l121 0 0 -135 0 -135
-365 0 -365 0 -1 123 c-1 67 -1 147 -1 177 -1 30 0 90 1 133 l1 77 115 0 115
0 0 -125z m-730 -485 l0 -110 -120 0 -120 0 0 110 0 110 120 0 120 0 0 -110z
m1478 -272 l-3 -123 -242 4 -243 4 0 -127 0 -126 -252 -2 -253 -3 2 -357 2
-358 -119 0 -120 0 0 28 c0 15 -1 117 -2 227 0 110 -3 206 -5 213 -4 9 -38 12
-124 12 l-118 0 -3 -87 c-2 -59 -7 -88 -15 -88 -6 0 -15 -3 -19 -7 -3 -4 3 -6
15 -3 18 3 21 -1 21 -26 l0 -29 -70 0 c-49 0 -70 4 -71 13 0 10 -2 10 -6 0 -3
-8 -24 -13 -54 -13 -44 0 -49 2 -49 23 0 13 6 29 13 36 10 11 9 13 -1 7 -10
-6 -12 35 -10 201 l3 208 123 3 122 3 0 119 0 120 -27 1 c-16 1 -97 1 -181 1
-87 -1 -150 3 -147 8 5 8 357 9 380 1 6 -2 49 -3 98 -2 l87 1 0 115 0 115 135
0 134 0 3 -112 3 -113 123 -3 122 -3 0 115 0 115 68 3 c37 2 206 4 375 6 l308
3 -3 -123z m-2468 -492 l0 -126 -110 0 -110 0 0 73 c0 39 3 95 6 123 l6 50
104 3 104 2 0 -125z m-668 -491 l3 -125 -267 0 -268 0 0 125 0 125 264 0 265
0 3 -125z m678 5 l0 -120 -174 0 c-159 0 -218 9 -167 25 10 3 21 13 24 23 3 9
12 28 20 42 17 28 51 109 53 125 1 5 2 13 3 18 0 4 55 7 121 7 l120 0 0 -120z
m-140 -850 l0 -490 -450 0 -450 0 0 490 0 490 450 0 450 0 0 -490z m848 368
l-3 -123 -122 -3 -123 -3 0 126 0 125 125 0 126 0 -3 -122z m-8 -498 l0 -120
-120 0 -120 0 0 120 0 120 120 0 120 0 0 -120z m1490 0 l0 -120 -125 0 -125 0
0 120 0 120 125 0 125 0 0 -120z"/>
<path d="M2676 2212 c-3 -3 -6 -61 -6 -129 l0 -123 125 0 126 0 -3 128 -3 127
-117 2 c-64 0 -119 -1 -122 -5z"/>
<path d="M2685 1620 c-3 -5 -1 -10 4 -10 6 0 11 5 11 10 0 6 -2 10 -4 10 -3 0
-8 -4 -11 -10z"/>
<path d="M770 731 c0 -55 -3 -106 -6 -115 -5 -13 -24 -16 -100 -16 l-94 0 0
-95 0 -95 100 0 100 0 0 -110 c0 -87 3 -110 14 -110 8 0 16 -7 20 -15 4 -11
21 -15 66 -15 57 0 60 1 60 25 0 14 -5 25 -10 25 -11 0 -69 60 -70 72 0 10 63
47 72 42 4 -3 8 -30 8 -60 l0 -54 110 0 111 0 -3 83 -3 82 -32 3 c-32 3 -33 4
-33 52 0 66 7 80 41 80 28 0 29 2 29 45 l0 45 -95 0 -95 0 0 93 c0 143 4 137
-101 137 l-89 0 0 -99z"/>
<path d="M570 720 l0 -80 80 0 80 0 0 80 0 80 -80 0 -80 0 0 -80z"/>
<path d="M990 720 l0 -80 75 0 75 0 0 80 0 80 -75 0 -75 0 0 -80z"/>
<path d="M570 285 l0 -85 80 0 80 0 0 85 0 85 -80 0 -80 0 0 -85z"/>
<path d="M634 4484 c3 -26 6 -57 6 -70 0 -23 3 -24 70 -24 l70 0 0 70 0 70
-76 0 -77 0 7 -46z m88 -8 c5 -8 8 -7 8 2 0 6 5 12 11 12 5 0 7 -4 4 -10 -3
-5 -1 -10 5 -10 26 0 -3 -18 -35 -22 -34 -4 -46 5 -38 28 5 14 36 14 45 0z"/>
<path d="M820 4436 l0 -96 -96 0 -96 0 7 -127 c5 -91 11 -131 21 -139 19 -15
18 -32 -3 -37 -17 -4 -17 -5 0 -6 24 -1 22 -21 -3 -21 -13 0 -20 -7 -20 -20 0
-18 7 -20 78 -21 42 -1 85 -1 95 0 15 2 17 -8 17 -78 0 -59 -4 -84 -16 -95
-19 -20 -110 -22 -117 -3 -4 10 -6 10 -6 0 -1 -7 -12 -13 -26 -13 -18 0 -25
-5 -25 -20 0 -23 -11 -22 225 -21 94 0 257 1 363 1 l193 0 -3 78 -3 77 -55 3
c-68 3 -81 -5 -84 -53 -2 -20 -9 -40 -16 -45 -15 -9 7 -17 59 -19 71 -3 41
-11 -42 -11 -81 0 -86 1 -90 23 l-4 22 -8 -22 c-6 -18 -15 -23 -41 -23 -29 0
-34 3 -34 24 0 19 7 25 38 32 22 4 30 9 20 11 -11 3 -18 14 -18 29 0 21 4 25
23 22 17 -2 23 -11 25 -35 2 -25 8 -33 23 -33 15 0 19 7 19 35 0 24 5 35 15
35 8 0 15 5 15 10 0 6 27 10 60 10 l60 0 0 59 c0 49 3 59 19 64 16 4 19 16 20
96 1 76 -1 91 -14 91 -9 0 -15 9 -15 25 0 14 5 25 10 25 6 0 10 13 10 29 0 28
-1 29 -39 24 -22 -3 -60 -2 -85 1 -42 7 -46 10 -45 34 0 15 3 21 6 15 3 -9 30
-13 84 -13 l79 0 0 85 0 85 -45 0 c-45 0 -60 -12 -29 -24 13 -5 14 -9 4 -22
-7 -8 -20 -12 -28 -9 -12 4 -14 -1 -9 -29 6 -36 -4 -46 -44 -46 -15 0 -19 7
-19 38 0 20 7 46 15 56 8 11 15 23 15 28 0 4 -74 7 -165 7 -112 -1 -163 -4
-158 -11 4 -7 -4 -8 -23 -4 -16 4 -44 10 -61 13 l-33 5 0 -96z m380 -36 c0
-33 5 -69 12 -80 14 -21 6 -35 -15 -27 -17 7 -25 167 -8 167 7 0 11 -25 11
-60z m-260 5 c18 -33 9 -69 -18 -73 -14 -2 -24 3 -28 15 -4 10 -21 30 -38 46
-29 25 -30 28 -13 41 24 18 81 2 97 -29z m104 20 c15 -14 38 -25 52 -25 23 0
25 -3 22 -37 -3 -32 -6 -38 -24 -35 -17 2 -23 -4 -28 -29 -3 -17 -6 -44 -6
-60 0 -26 -3 -29 -34 -29 l-34 0 -4 108 c-2 59 -2 113 0 120 6 19 27 14 56
-13z m-334 -137 c0 -7 3 -23 6 -35 5 -20 2 -23 -20 -23 -28 0 -34 17 -16 51
12 21 30 26 30 7z m190 -33 c0 -16 -6 -25 -15 -25 -8 0 -15 4 -15 9 0 5 -3 16
-6 25 -4 12 0 16 15 16 16 0 21 -6 21 -25z m440 -11 c0 -20 -4 -25 -16 -20 -9
3 -18 6 -20 6 -2 0 -4 9 -4 20 0 13 7 20 20 20 15 0 20 -7 20 -26z m-540 -69
c0 -25 -4 -45 -10 -45 -5 0 -10 20 -10 45 0 25 5 45 10 45 6 0 10 -20 10 -45z
m357 15 c10 -26 16 -30 47 -30 30 0 36 -4 36 -21 0 -14 5 -19 13 -16 22 8 37
-6 21 -21 -8 -7 -14 -8 -14 -2 0 5 -22 10 -50 10 -47 0 -50 2 -50 25 0 18 -5
25 -20 25 -16 0 -20 7 -20 30 0 18 5 30 13 30 7 0 18 -13 24 -30z m213 -4 c0
-22 -16 -36 -41 -36 -10 0 -12 43 -2 53 3 4 15 7 25 7 12 0 18 -7 18 -24z
m-423 -18 c-3 -8 -6 -5 -6 6 -1 11 2 17 5 13 3 -3 4 -12 1 -19z m26 -36 c3 7
6 -6 6 -29 1 -24 6 -43 11 -43 6 0 10 -4 10 -8 0 -5 -13 -9 -30 -9 -30 0 -30
1 -30 56 1 50 2 54 14 38 11 -14 15 -15 19 -5z m-218 -33 c0 -7 -8 -15 -17
-17 -18 -3 -25 18 -11 32 10 10 28 1 28 -15z m85 -21 c0 -10 7 -18 15 -18 8 0
15 -7 15 -15 0 -19 28 -8 33 13 3 10 5 -3 6 -27 1 -37 4 -43 19 -39 11 3 23
-2 29 -12 9 -13 24 -16 72 -14 55 2 61 1 61 -17 0 -19 -5 -20 -70 -17 -39 2
-70 1 -70 -2 0 -3 -14 -6 -30 -7 -29 -2 -30 0 -30 37 0 28 -4 40 -14 40 -8 0
-16 10 -18 23 -2 18 -9 22 -38 22 -30 0 -35 4 -38 26 -3 23 0 26 27 25 22 -1
31 -6 31 -18z m420 -78 c0 -5 -18 -10 -40 -10 -22 0 -40 5 -40 10 0 6 18 10
40 10 22 0 40 -4 40 -10z m-260 -201 c0 -17 -5 -20 -32 -17 -22 2 -34 9 -36
21 -3 14 4 17 32 17 30 0 36 -4 36 -21z m350 5 c0 -9 -7 -14 -17 -12 -25 5
-28 28 -4 28 12 0 21 -6 21 -16z"/>
<path d="M920 3955 c0 -8 5 -15 10 -15 6 0 10 7 10 15 0 8 -4 15 -10 15 -5 0
-10 -7 -10 -15z"/>
<path d="M665 3932 c-3 -3 -5 -29 -5 -58 l0 -53 45 -7 c25 -3 51 -4 59 -1 16
7 29 67 21 100 -6 22 -12 24 -60 24 -30 0 -57 -2 -60 -5z"/>
<path d="M1190 3795 c0 -8 5 -15 10 -15 6 0 10 7 10 15 0 8 -4 15 -10 15 -5 0
-10 -7 -10 -15z"/>
<path d="M997 2963 c-4 -3 -7 -118 -7 -255 l0 -248 115 0 115 0 0 88 c0 49 -3
164 -7 255 l-6 167 -102 0 c-56 0 -105 -3 -108 -7z"/>
<path d="M1447 2963 c-7 -12 5 -156 12 -146 3 4 31 9 61 9 42 1 142 9 168 14
1 0 2 29 2 65 l0 65 -119 0 c-66 0 -122 -3 -124 -7z"/>
<path d="M260 2585 l0 -125 250 0 250 0 0 125 0 125 -250 0 -250 0 0 -125z"/>
<path d="M4377 1706 c-3 -8 -3 -51 0 -96 8 -136 14 -130 -127 -130 l-120 0 0
-370 0 -370 125 0 125 0 0 240 0 240 110 0 110 0 0 250 0 250 -109 0 c-84 0
-110 -3 -114 -14z"/>
<path d="M3951 1266 c-8 -10 -9 -16 -1 -21 5 -3 10 -5 11 -3 4 18 7 38 4 38
-1 0 -8 -6 -14 -14z"/>
<path d="M4400 845 l0 -105 100 0 100 0 0 105 0 105 -100 0 -100 0 0 -105z"/>
<path d="M2968 3 c34 -2 90 -2 125 0 34 2 6 3 -63 3 -69 0 -97 -1 -62 -3z"/>
</g>
</svg>
